<mxfile host="app.diagrams.net" modified="2024-01-12T15:25:02.381Z" agent="Mozilla/5.0 (Windows NT 10.0; Win64; x64) AppleWebKit/537.36 (KHTML, like Gecko) Chrome/120.0.0.0 Safari/537.36 Edg/120.0.0.0" version="22.1.18" etag="MCzdcD2K4Qbo5PVq5KoL" type="github">
  <diagram name="Page-1" id="M_L0OaCK6lkP_OPm3K-d">
    <mxGraphModel>
      <root>
        <mxCell id="0" />
        <mxCell id="1" parent="0" />
      </root>
    </mxGraphModel>
  </diagram>
</mxfile>
